<?xml version="1.0" encoding="iso-8859-1"?>
<!-- Generator: Adobe Illustrator 20.1.0, SVG Export Plug-In . SVG Version: 6.00 Build 0)  -->
<svg version="1.1" id="Capa_1" xmlns="http://www.w3.org/2000/svg" xmlns:xlink="http://www.w3.org/1999/xlink" x="0px" y="0px"
	 width="98px" height="98px" viewBox="0 0 98 98" style="enable-background:new 0 0 98 98;" xml:space="preserve">
<g>
	<g>
		<defs>
			<rect id="SVGID_1_" x="18.74" y="1.095" width="60.519" height="95.81"/>
		</defs>
		<clipPath id="SVGID_2_">
			<use xlink:href="#SVGID_1_"  style="overflow:visible;"/>
		</clipPath>
		<path style="clip-path:url(#SVGID_2_);" d="M46.083,29.061c-5.651,0-10.249,4.597-10.249,10.248v19.979
			c0,5.651,4.597,10.249,10.249,10.249c5.651,0,10.248-4.598,10.248-10.249V39.309C56.331,33.658,51.734,29.061,46.083,29.061
			L46.083,29.061z M40.046,39.309c0-3.329,2.708-6.037,6.038-6.037c3.328,0,6.036,2.707,6.036,6.037v3.133
			c0,3.329-2.708,6.038-6.036,6.038c-3.329,0-6.038-2.708-6.038-6.038V39.309z M46.083,65.325c-3.329,0-6.038-2.708-6.038-6.038
			v-8.571c1.695,1.24,3.782,1.974,6.038,1.974c2.256,0,4.342-0.734,6.036-1.974v8.571C52.12,62.617,49.411,65.325,46.083,65.325
			L46.083,65.325z M46.083,65.325"/>
		<path style="clip-path:url(#SVGID_2_);" d="M77.633,20.21c-0.907-0.957-2.124-1.485-3.428-1.485h-0.832
			c-0.42-8.929-3.39-13.823-3.526-14.042c-0.385-0.619-1.061-0.995-1.789-0.995h-4.256c-0.814-0.705-2.068-1.514-4.002-2.401
			c-0.557-0.256-1.199-0.256-1.757,0c-1.51,0.694-2.605,1.338-3.401,1.924c-0.796-0.585-1.89-1.23-3.401-1.924
			c-0.559-0.256-1.2-0.256-1.757,0c-1.511,0.694-2.606,1.338-3.401,1.924c-0.796-0.586-1.891-1.23-3.402-1.924
			c-0.557-0.256-1.199-0.256-1.756,0c-1.512,0.694-2.606,1.338-3.402,1.924c-0.796-0.585-1.891-1.23-3.401-1.924
			c-0.559-0.256-1.2-0.256-1.757,0c-1.934,0.887-3.188,1.694-4.002,2.401h-4.255c-0.729,0-1.406,0.376-1.789,0.995
			c-0.147,0.235-3.578,5.882-3.578,16.148c0,6.952,1.214,12.29,2.501,17.942c0.651,2.859,1.324,5.816,1.892,9.178
			c0.738,4.376,0.923,8.837,1.119,13.561c0.267,6.428,0.544,13.076,2.294,19.816c2.342,9.023,10.376,15.324,19.536,15.324
			s17.194-6.302,19.537-15.324c1.749-6.741,2.025-13.388,2.293-19.816c0.196-4.723,0.382-9.185,1.121-13.56
			c0.568-3.362,1.24-6.319,1.891-9.179c0.307-1.351,0.611-2.685,0.894-4.026h1.238c2.67,0,5.082-2.162,5.492-4.922
			c0.006-0.044,0.012-0.089,0.015-0.136l0.457-5.531c0.001-0.019,0.003-0.039,0.004-0.058C79.103,22.645,78.596,21.227,77.633,20.21
			L77.633,20.21z M58.924,5.548c0.913,0.479,1.77,1.016,2.174,1.367v2.027H56.75V6.915C57.153,6.565,58.01,6.028,58.924,5.548
			L58.924,5.548z M50.364,5.548c0.913,0.479,1.769,1.016,2.174,1.367v2.027h-4.349V6.915C48.593,6.565,49.45,6.028,50.364,5.548
			L50.364,5.548z M41.804,5.548c0.913,0.479,1.77,1.016,2.174,1.367v2.027h-4.35V6.915C40.031,6.565,40.889,6.028,41.804,5.548
			L41.804,5.548z M33.242,5.548c0.914,0.48,1.77,1.017,2.174,1.367v2.027h-4.348V6.915C31.47,6.565,32.328,6.028,33.242,5.548
			L33.242,5.548z M25.398,7.9h1.458v3.148c0,1.164,0.943,2.106,2.106,2.106h34.242c1.163,0,2.106-0.942,2.106-2.106V7.9h1.467
			c0.751,1.642,2.099,5.296,2.383,10.826H23.006C23.294,13.242,24.649,9.555,25.398,7.9L25.398,7.9z M66.818,37.839
			c-0.664,2.917-1.35,5.933-1.938,9.412c-0.783,4.636-0.982,9.441-1.175,14.086c-0.258,6.207-0.525,12.626-2.162,18.933
			c-1.86,7.167-8.217,12.171-15.46,12.171c-7.242,0-13.599-5.005-15.46-12.171c-1.637-6.307-1.903-12.726-2.161-18.933
			c-0.193-4.645-0.394-9.45-1.176-14.086c-0.587-3.479-1.273-6.495-1.937-9.412c-1.142-5.02-2.145-9.435-2.354-14.902H69.17
			C68.962,28.404,67.96,32.819,66.818,37.839L66.818,37.839z M74.373,29.26c-0.135,0.722-0.807,1.275-1.317,1.275h-0.44
			c0.389-2.382,0.67-4.873,0.768-7.598h0.822c0.051,0,0.21,0,0.37,0.17c0.167,0.176,0.255,0.445,0.244,0.741L74.373,29.26z
			 M74.373,29.26"/>
	</g>
</g>
</svg>
