<?xml version="1.0" encoding="iso-8859-1"?>
<!-- Generator: Adobe Illustrator 20.1.0, SVG Export Plug-In . SVG Version: 6.00 Build 0)  -->
<svg version="1.1" id="Capa_1" xmlns="http://www.w3.org/2000/svg" xmlns:xlink="http://www.w3.org/1999/xlink" x="0px" y="0px"
	 width="98px" height="98px" viewBox="0 0 98 98" style="enable-background:new 0 0 98 98;" xml:space="preserve">
<g transform="translate(1 1)">
	<path d="M54.285,87.281h-12.57V76.283h12.57V87.281z M44.857,84.139h6.285v-4.714h-6.285V84.139z"/>
	<path d="M63.713,73.14H32.287c-4.4,0-7.856-3.457-7.856-7.856c0-4.4,3.457-7.856,7.856-7.856h31.425c4.4,0,7.856,3.457,7.856,7.856
		C71.569,69.683,68.112,73.14,63.713,73.14z M32.287,60.57c-2.671,0-4.714,2.043-4.714,4.714c0,2.671,2.043,4.714,4.714,4.714
		h31.425c2.671,0,4.714-2.043,4.714-4.714c0-2.671-2.043-4.714-4.714-4.714H32.287z"/>
	<path d="M52.714,79.425h-9.428v-9.428h9.428V79.425z M46.429,76.283h3.143V73.14h-3.143V76.283z"/>
	<path d="M19.717,57.428h-6.285c-3.457,0-6.285-2.828-6.285-6.285s2.828-6.285,6.285-6.285h6.285c3.457,0,6.285,2.828,6.285,6.285
		C26.002,54.599,23.174,57.428,19.717,57.428z M13.432,48c-1.728,0-3.143,1.414-3.143,3.143s1.414,3.143,3.143,3.143h6.285
		c1.728,0,3.143-1.414,3.143-3.143S21.446,48,19.717,48H13.432L13.432,48z"/>
	<path d="M26.002,66.855c-6.128,0-10.999-4.871-10.999-10.999c0-0.943,0.629-1.571,1.571-1.571c0.943,0,1.571,0.629,1.571,1.571
		c0,4.4,3.457,7.856,7.856,7.856c0.943,0,1.571,0.629,1.571,1.571C27.574,66.227,26.945,66.855,26.002,66.855z"/>
	<path d="M60.57,24.431H35.43v-7.856c0-6.914,5.657-12.57,12.57-12.57s12.57,5.657,12.57,12.57V24.431z M38.572,21.289h18.855
		v-4.714c0-5.185-4.242-9.428-9.428-9.428s-9.428,4.242-9.428,9.428V21.289z"/>
	<path d="M48,7.147c-0.943,0-1.571-0.629-1.571-1.571V2.433c0-0.943,0.629-1.571,1.571-1.571s1.571,0.629,1.571,1.571v3.143
		C49.571,6.519,48.943,7.147,48,7.147z"/>
	<path d="M82.568,57.428h-6.285c-3.457,0-6.285-2.828-6.285-6.285s2.828-6.285,6.285-6.285h6.285c3.457,0,6.285,2.828,6.285,6.285
		C88.853,54.599,86.024,57.428,82.568,57.428z M76.283,48c-1.728,0-3.143,1.414-3.143,3.143s1.414,3.143,3.143,3.143h6.285
		c1.728,0,3.143-1.414,3.143-3.143S84.296,48,82.568,48H76.283L76.283,48z"/>
	<path d="M69.998,66.855c-0.943,0-1.571-0.629-1.571-1.571c0-0.943,0.629-1.571,1.571-1.571c4.4,0,7.856-3.457,7.856-7.856
		c0-0.943,0.629-1.571,1.571-1.571c0.943,0,1.571,0.629,1.571,1.571C80.996,61.984,76.126,66.855,69.998,66.855z"/>
	<path d="M58.999,95.138H37.001v-1.571c0-5.185,4.242-9.428,9.428-9.428h3.143c5.185,0,9.428,4.242,9.428,9.428V95.138z
		 M40.301,91.995h15.241c-0.629-2.671-3.143-4.714-6.128-4.714h-3.143C43.443,87.281,41.086,89.324,40.301,91.995z"/>
	<path d="M68.426,55.856H27.574V40.144c0-6.914,5.657-12.57,12.57-12.57h15.713c6.914,0,12.57,5.657,12.57,12.57V55.856z
		 M30.716,52.714h34.568v-12.57c0-5.185-4.242-9.428-9.428-9.428H40.144c-5.185,0-9.428,4.242-9.428,9.428V52.714z"/>
	<path d="M48,60.57c-0.943,0-1.571-0.629-1.571-1.571v-4.714c0-0.943,0.629-1.571,1.571-1.571s1.571,0.629,1.571,1.571v4.714
		C49.571,59.942,48.943,60.57,48,60.57z"/>
	<path d="M48,30.716c-0.943,0-1.571-0.629-1.571-1.571V22.86c0-0.943,0.629-1.571,1.571-1.571s1.571,0.629,1.571,1.571v6.285
		C49.571,30.088,48.943,30.716,48,30.716z"/>
	<path d="M68.426,95.138H27.574c-0.943,0-1.571-0.629-1.571-1.571c0-0.943,0.629-1.571,1.571-1.571h40.853
		c0.943,0,1.571,0.629,1.571,1.571C69.998,94.509,69.369,95.138,68.426,95.138z"/>
</g>
</svg>
