<?xml version="1.0" encoding="iso-8859-1"?>
<!-- Generator: Adobe Illustrator 20.1.0, SVG Export Plug-In . SVG Version: 6.00 Build 0)  -->
<svg version="1.1" id="Capa_1" xmlns="http://www.w3.org/2000/svg" xmlns:xlink="http://www.w3.org/1999/xlink" x="0px" y="0px"
	 width="98px" height="98px" viewBox="0 0 98 98" style="enable-background:new 0 0 98 98;" xml:space="preserve">
<g transform="translate(1 1)">
	<path d="M66.592,96.584h-35.66c-2.756,0-4.863-2.107-4.863-4.863s2.107-4.863,4.863-4.863c0.324,0,0.486-0.162,0.486-0.324
		c0-0.162,0.162-0.324,0-0.486c-1.459-2.756-2.107-5.835-2.107-8.915s0.81-6.159,2.107-8.915c0.162-0.162,0-0.324,0-0.486
		c0-0.162-0.162-0.324-0.486-0.324c-2.756,0-4.863-2.107-4.863-4.863c0-2.756,2.107-4.863,4.863-4.863h35.66
		c2.756,0,4.863,2.107,4.863,4.863c0,2.756-2.107,4.863-4.863,4.863c-0.324,0-0.486,0.162-0.486,0.324c0,0.162-0.162,0.324,0,0.486
		c1.459,2.756,2.107,5.835,2.107,8.915s-0.81,6.159-2.107,8.915c-0.162,0.162,0,0.324,0,0.486s0.162,0.324,0.486,0.324
		c2.756,0,4.863,2.107,4.863,4.863S69.185,96.584,66.592,96.584z M30.932,60.925c-0.973,0-1.621,0.648-1.621,1.621
		c0,0.973,0.648,1.621,1.621,1.621c1.297,0,2.593,0.648,3.242,1.783c0.648,1.135,0.81,2.593,0.162,3.728
		c-1.135,2.269-1.783,4.863-1.783,7.456c0,2.593,0.648,5.187,1.783,7.456c0.648,1.135,0.486,2.593-0.162,3.728
		c-0.648,1.135-1.945,1.783-3.242,1.783c-0.973,0-1.621,0.648-1.621,1.621c0,0.973,0.648,1.621,1.621,1.621h35.66
		c0.973,0,1.621-0.648,1.621-1.621c0-0.973-0.648-1.621-1.621-1.621c-1.297,0-2.593-0.648-3.242-1.783
		c-0.648-1.135-0.81-2.593-0.162-3.728c1.135-2.269,1.783-4.863,1.783-7.456c0-2.593-0.648-5.187-1.783-7.456
		c-0.648-1.135-0.486-2.593,0.162-3.728c0.648-1.135,1.945-1.783,3.242-1.783c0.973,0,1.621-0.648,1.621-1.621
		c0-0.973-0.648-1.621-1.621-1.621H30.932z"/>
	<path d="M60.757,34.99c-0.324,0-0.648,0-0.81,0c-4.538-0.486-7.942-4.538-7.942-9.239v-6.97H24.611
		c-3.08,0-5.835-2.107-6.484-5.025c-0.648-2.918,0.81-5.835,3.404-7.132c1.135-4.214,4.863-7.132,9.401-7.132
		c3.242,0,6.321,1.621,8.104,4.376c0.162,0.162,0.162,0.162,0.324,0.162c2.593-1.621,5.835-1.783,8.429-0.324
		c0.162,0,0.162,0,0.324,0c1.459-2.593,4.214-4.376,7.132-4.376c3.566,0,6.646,2.269,7.78,5.673c0.162,0.486,0.648,0.81,1.135,0.81
		h8.753c3.242,0,5.997,2.107,6.646,5.187c0.324,1.945-0.162,3.89-1.297,5.349c-1.297,1.459-3.08,2.431-5.025,2.431h-3.242v7.294
		c0,2.431-1.135,4.863-2.918,6.646C65.133,34.18,63.026,34.99,60.757,34.99z M30.932,2.572c-3.08,0-5.835,2.269-6.321,5.349
		l-0.324,0.973l-0.81,0.324c-1.459,0.486-2.593,1.945-2.269,3.89c0.324,1.459,1.783,2.593,3.404,2.593h30.635v10.212
		c0,3.08,2.269,5.673,5.025,5.997c1.621,0.162,3.242-0.324,4.376-1.459c1.135-1.135,1.945-2.593,1.945-4.214V15.54h6.484
		c0.973,0,1.945-0.486,2.431-1.135c0.648-0.81,0.81-1.783,0.648-2.756c-0.324-1.459-1.783-2.593-3.404-2.593h-8.753
		c-1.945,0-3.566-1.297-4.214-3.08c-0.648-1.945-2.593-3.404-4.701-3.404c-1.783,0-3.404,0.973-4.214,2.593
		c-0.486,0.81-1.135,1.297-2.107,1.621s-1.945,0.162-2.756-0.324c-1.621-0.81-3.566-0.81-5.025,0.162
		c-0.81,0.486-1.621,0.648-2.593,0.486c-0.973-0.162-1.783-0.81-2.431-1.621C34.984,3.707,33.039,2.572,30.932,2.572z"/>
	<path d="M59.946,60.925h-22.53l-6.321-6.646c-9.077-9.563-12.157-23.341-8.267-35.984l0.81-2.756h31.445v10.212
		c0,3.08,2.269,5.673,5.025,5.997c1.621,0.162,3.242-0.324,4.376-1.459c1.135-1.135,1.945-2.593,1.945-4.214V15.54h7.132
		l0.324,0.973c5.025,13.453,1.783,28.528-8.429,38.739L59.946,60.925z M38.875,57.683h19.775l4.701-4.701
		c8.915-8.915,11.995-22.206,8.104-34.201h-1.621v7.294c0,2.431-1.135,4.863-2.918,6.646c-1.945,1.621-4.376,2.593-6.808,2.269
		c-4.538-0.486-7.942-4.538-7.942-9.239v-6.97H26.07l-0.162,0.486c-3.566,11.508-0.648,23.989,7.618,32.742L38.875,57.683z"/>
	<path d="M43.899,54.441c-0.486,0-0.81-0.162-1.135-0.486l-4.052-4.214c-6.646-7.132-9.401-17.019-7.618-26.421
		c0.162-0.81,0.973-1.459,1.945-1.297c0.81,0.162,1.459,0.973,1.297,1.945c-1.621,8.429,0.81,17.344,6.808,23.665l3.89,4.214
		c0.648,0.648,0.648,1.621,0,2.269C44.548,54.279,44.224,54.441,43.899,54.441z"/>
	<path d="M58.487,69.029H39.037c-0.973,0-1.621-0.648-1.621-1.621c0-0.973,0.648-1.621,1.621-1.621h19.451
		c0.973,0,1.621,0.648,1.621,1.621C60.108,68.381,59.298,69.029,58.487,69.029z"/>
	<path d="M58.487,75.513H39.037c-0.973,0-1.621-0.648-1.621-1.621c0-0.973,0.648-1.621,1.621-1.621h19.451
		c0.973,0,1.621,0.648,1.621,1.621C60.108,74.864,59.298,75.513,58.487,75.513z"/>
	<path d="M58.487,81.996H39.037c-0.973,0-1.621-0.648-1.621-1.621s0.648-1.621,1.621-1.621h19.451c0.973,0,1.621,0.648,1.621,1.621
		S59.298,81.996,58.487,81.996z"/>
	<path d="M58.487,88.48H39.037c-0.973,0-1.621-0.648-1.621-1.621s0.648-1.621,1.621-1.621h19.451c0.973,0,1.621,0.648,1.621,1.621
		S59.298,88.48,58.487,88.48z"/>
</g>
</svg>
