<?xml version="1.0" encoding="iso-8859-1"?>
<!-- Generator: Adobe Illustrator 20.1.0, SVG Export Plug-In . SVG Version: 6.00 Build 0)  -->
<svg version="1.1" id="Capa_1" xmlns="http://www.w3.org/2000/svg" xmlns:xlink="http://www.w3.org/1999/xlink" x="0px" y="0px"
	 width="98px" height="98px" viewBox="0 0 98 98" style="enable-background:new 0 0 98 98;" xml:space="preserve">
<g>
	<path d="M15.038,9.401l7.813,15.278c0.379,0.742,1.288,1.035,2.029,0.656c0.741-0.379,1.035-1.287,0.656-2.029L19.33,11.17
		l43.395,58.122c0.296,0.397,0.75,0.606,1.209,0.606c0.314,0,0.63-0.097,0.901-0.3c0.667-0.498,0.804-1.443,0.306-2.11
		l-10.03-13.434L77.733,9.236c0.021-0.042,0.041-0.086,0.058-0.13c0.514-1.314-0.018-2.747-1.264-3.407
		c-1.238-0.656-2.71-0.301-3.512,0.843L46.48,42.494L19.742,6.681c-0.808-1.139-2.282-1.486-3.516-0.824
		c-1.243,0.667-1.767,2.103-1.247,3.414C14.997,9.315,15.017,9.358,15.038,9.401z M73.448,11.033L53.095,51.355l-4.731-6.336
		L73.448,11.033z"/>
	<path d="M65.876,86.661c1.274,1.835,3.322,2.82,5.403,2.82c1.291,0,2.594-0.379,3.733-1.169c2.974-2.064,3.715-6.162,1.651-9.136
		c-1-1.441-2.5-2.406-4.226-2.718c-1.725-0.312-3.469,0.067-4.91,1.066C64.554,79.589,63.813,83.687,65.876,86.661z M69.247,80.003
		c0.601-0.417,1.299-0.634,2.016-0.634c0.212,0,0.426,0.019,0.639,0.057c0.933,0.169,1.744,0.69,2.285,1.469
		c1.116,1.608,0.715,3.824-0.893,4.939c-1.608,1.116-3.824,0.715-4.939-0.893C67.238,83.334,67.639,81.118,69.247,80.003z"/>
	<path d="M25.629,77.635c-1.446-0.992-3.191-1.362-4.916-1.041c-1.724,0.321-3.22,1.294-4.212,2.74
		c-2.048,2.985-1.286,7.079,1.699,9.127c1.106,0.759,2.387,1.153,3.7,1.153c0.403,0,0.81-0.037,1.215-0.113
		c1.724-0.321,3.22-1.294,4.211-2.74c0.992-1.446,1.362-3.191,1.041-4.915C28.047,80.123,27.075,78.627,25.629,77.635z
		 M24.841,85.056c-0.536,0.782-1.345,1.308-2.277,1.481c-0.932,0.174-1.876-0.026-2.657-0.563c-1.614-1.107-2.026-3.321-0.919-4.934
		c0.687-1.002,1.8-1.54,2.932-1.54c0.692,0,1.39,0.201,2.003,0.621c0.782,0.536,1.308,1.345,1.481,2.277
		C25.577,83.331,25.378,84.275,24.841,85.056z"/>
	<path d="M93.232,89.902c-0.783-1.027-1.975-1.654-3.27-1.717c-1.996-0.099-4.786-0.382-7.526-1.136
		c0.238-0.648,0.425-1.319,0.55-2.012c0.566-3.129-0.121-6.292-1.934-8.904c-3.137-4.52-8.915-6.295-14.052-4.316
		c-0.777,0.299-1.164,1.172-0.865,1.949c0.299,0.777,1.172,1.164,1.949,0.865c3.836-1.478,8.149-0.153,10.491,3.221
		c1.354,1.951,1.867,4.312,1.444,6.649c-0.168,0.93-0.478,1.811-0.912,2.621c-0.056,0.082-0.105,0.17-0.145,0.264
		c-0.646,1.114-1.534,2.082-2.624,2.838c-1.951,1.354-4.312,1.867-6.649,1.444c-2.337-0.422-4.369-1.729-5.723-3.68
		c-2.29-3.301-2.071-7.747,0.532-10.812c0.484-0.57,0.477-1.41-0.017-1.972L48.047,56.511c-0.306-0.348-0.753-0.535-1.216-0.51
		l-0.454,0.025c-0.233-0.042-0.473-0.029-0.7,0.039l-3.295,0.184L28.294,28.7c-0.379-0.741-1.288-1.035-2.029-0.656
		c-0.741,0.379-1.035,1.287-0.656,2.029l12.294,24.042l-12.88,17.45c-4.849-1.324-10.034,0.534-12.926,4.749
		c-3.714,5.413-2.331,12.838,3.082,16.552c2.054,1.409,4.397,2.085,6.718,2.085c3.795,0,7.53-1.807,9.834-5.166
		c2.794-4.073,2.751-9.424,0.013-13.436l14.773-17.01L61.405,76.27c-2.717,4.026-2.732,9.377,0.084,13.435
		c1.813,2.613,4.535,4.363,7.664,4.929c0.715,0.129,1.431,0.193,2.143,0.193c1.97,0,3.9-0.491,5.642-1.438
		c1.577,1.381,5.226,3.488,12.828,3.496c0.001,0,0.003,0,0.004,0c2.02,0,3.804-1.432,4.245-3.412
		C94.293,92.222,94.008,90.921,93.232,89.902z M28.662,75.298c-0.49,0.565-0.493,1.403-0.006,1.971
		c2.619,3.052,2.862,7.497,0.589,10.809c-2.773,4.042-8.318,5.074-12.36,2.301c-4.042-2.773-5.074-8.318-2.301-12.36
		c2.324-3.387,6.63-4.734,10.474-3.276c0.632,0.239,1.346,0.029,1.748-0.514l12.632-17.115l0.707,1.383
		c0.272,0.531,0.831,0.852,1.427,0.819l1.022-0.057L28.662,75.298z M91.07,92.822c-0.135,0.607-0.682,1.048-1.301,1.048
		c0,0-0.001,0-0.001,0c-5.862-0.006-8.886-1.377-10.283-2.333c0.568-0.539,1.077-1.128,1.523-1.761
		c3.207,0.963,6.5,1.308,8.805,1.421c0.405,0.02,0.777,0.214,1.02,0.533C90.972,91.912,91.188,92.296,91.07,92.822z"/>
</g>
<g>
</g>
<g>
</g>
<g>
</g>
<g>
</g>
<g>
</g>
<g>
</g>
</svg>
