<?xml version="1.0" encoding="iso-8859-1"?>
<!-- Generator: Adobe Illustrator 20.1.0, SVG Export Plug-In . SVG Version: 6.00 Build 0)  -->
<svg version="1.1" id="Capa_1" xmlns="http://www.w3.org/2000/svg" xmlns:xlink="http://www.w3.org/1999/xlink" x="0px" y="0px"
	 width="98px" height="98px" viewBox="0 0 98 98" style="enable-background:new 0 0 98 98;" xml:space="preserve">
<g>
	<path d="M58.07,82.106c-0.005-1.637-0.471-3.24-1.345-4.625L20.194,18.848c-0.456-0.703-0.975-1.364-1.551-1.973
		c4.708,0.081,10.473,0.267,15.553,0.439c-1.284,1.632-1.988,3.645-2.003,5.721l0.002,0.315c0.019,2.343,0.99,4.578,2.69,6.192
		c1.676,1.592,3.934,2.422,6.242,2.296c16.537-0.832,32.779-4.704,47.913-11.423c3.101-1.366,5.093-4.446,5.066-7.835
		c-0.012-1.36-0.344-2.697-0.97-3.905l0,0l0,0c-2.037-4.109-6.888-5.965-11.147-4.267c-12.266,5.394-25.366,8.642-38.731,9.605
		c-3.022-0.129-24.397-1.013-31.865-0.781c-0.506-0.049-1.015-0.046-1.52,0.01c-0.167,0.001-0.315,0.002-0.445,0.003
		c-0.037-0.002-0.074-0.002-0.111,0.001c-0.644,0.123-1.267,0.339-1.849,0.642c-2.612,1.693-4.076,4.689-3.806,7.79
		c0.036,1.923,0.484,3.817,1.314,5.552L35.17,89.312c1.097,2.252,3.082,3.945,5.479,4.673c3.511,1.003,7.279,0.524,10.426-1.326
		C55.146,90.668,57.821,86.631,58.07,82.106z M90.306,12.566c0.015,1.906-1.102,3.639-2.845,4.411
		C72.738,23.49,56.941,27.234,40.862,28.021c-1.299,0.072-2.57-0.396-3.511-1.294c-0.519-0.489-0.921-1.088-1.179-1.753
		c18.774-0.043,37.285-4.416,54.094-12.778L90.306,12.566z M83.343,7.68c1.842-0.735,3.946-0.27,5.308,1.171
		c-6.226,3.135-27.424,12.758-52.503,12.453c0.566-1.898,2.231-3.26,4.204-3.437c0.982-0.006,1.945-0.142,2.927-0.204l0.13-0.001
		c0.062,0.003,0.124,0.002,0.185-0.001C57.316,16.623,70.759,13.247,83.343,7.68z M41.776,90.512
		c-1.426-0.422-2.609-1.423-3.261-2.76L8.319,25.669c-0.606-1.26-0.931-2.636-0.952-4.034c-0.184-1.731,0.577-3.428,1.992-4.442
		c0.234-0.12,0.483-0.209,0.74-0.264c0.334-0.002,0.778-0.005,1.334-0.008c2.345,0.459,4.38,1.905,5.585,3.968l36.512,58.634
		c0.51,0.801,0.78,1.732,0.777,2.683c-0.283,3.131-2.186,5.886-5.014,7.26C47.037,90.827,44.32,91.206,41.776,90.512z"/>
	<path d="M49.952,78.919c-0.004-0.488-0.063-0.974-0.176-1.448c-0.868-3.443-4.363-5.531-7.807-4.663
		C39.128,73.524,37.13,76.07,37.111,79c0.004,0.488,0.063,0.974,0.176,1.448c0.868,3.443,4.363,5.531,7.807,4.663
		C47.935,84.395,49.933,81.849,49.952,78.919z M42.106,81.254c-1.279-0.78-1.684-2.45-0.904-3.729
		c0.78-1.279,2.45-1.684,3.729-0.904c1.279,0.78,1.684,2.45,0.904,3.729c-0.376,0.616-0.981,1.057-1.683,1.226
		c-0.685,0.197-1.421,0.115-2.046-0.229L42.106,81.254z"/>
	<path d="M16.155,24.069c-0.471-1.466-2.042-2.271-3.507-1.8c-1.277,0.411-2.081,1.674-1.912,3.005
		c0.471,1.466,2.042,2.271,3.507,1.8C15.521,26.663,16.324,25.4,16.155,24.069z"/>
</g>
</svg>
