<?xml version="1.0" encoding="iso-8859-1"?>
<!-- Generator: Adobe Illustrator 20.1.0, SVG Export Plug-In . SVG Version: 6.00 Build 0)  -->
<svg version="1.1" id="Capa_1" xmlns="http://www.w3.org/2000/svg" xmlns:xlink="http://www.w3.org/1999/xlink" x="0px" y="0px"
	 width="98px" height="98px" viewBox="0 0 98 98" style="enable-background:new 0 0 98 98;" xml:space="preserve">
<g>
	<path d="M33.365,77.652H22.458c-1.004,0-1.818,0.813-1.818,1.818v7.272c0,1.004,0.814,1.818,1.818,1.818h10.908
		c1.004,0,1.818-0.814,1.818-1.818V79.47C35.183,78.465,34.369,77.652,33.365,77.652L33.365,77.652z M31.547,84.924h-7.272v-3.636
		h7.272V84.924z M31.547,84.924"/>
	<path d="M33.365,56.564H22.458c-1.004,0-1.818,0.814-1.818,1.818v13.817c0,1.004,0.814,1.818,1.818,1.818h10.908
		c1.004,0,1.818-0.814,1.818-1.818V58.382C35.183,57.378,34.369,56.564,33.365,56.564L33.365,56.564z M31.547,70.38h-7.272V60.2
		h7.272V70.38z M31.547,70.38"/>
	<path d="M93.722,13.66c1.004,0,1.818-0.814,1.818-1.818V4.57c0-1.004-0.814-1.818-1.818-1.818H4.278
		c-1.004,0-1.818,0.814-1.818,1.818v7.272c0,1.004,0.814,1.818,1.818,1.818h1.818v13.817H4.278c-1.004,0-1.818,0.814-1.818,1.818
		v7.272c0,1.004,0.814,1.818,1.818,1.818h1.818v55.629c0,1.004,0.814,1.818,1.818,1.818h82.172c1.004,0,1.818-0.814,1.818-1.818
		V38.384h1.818c1.004,0,1.818-0.814,1.818-1.818v-7.272c0-1.004-0.814-1.818-1.818-1.818h-1.818V13.66H93.722z M13.368,92.196H9.732
		V88.56h3.636V92.196z M17.004,92.196V52.928h21.815v39.268H17.004z M88.268,92.196H42.455V88.56h45.813V92.196z M88.268,42.02
		H80.45c-1.002,0-1.818,0.816-1.818,1.818c0,1.002,0.816,1.818,1.818,1.818h7.818v39.268H42.455V51.11
		c0-1.004-0.814-1.818-1.818-1.818H15.186c-1.004,0-1.818,0.814-1.818,1.818v33.814H9.732V45.656h7.817
		c1.002,0,1.818-0.816,1.818-1.818c0-1.002-0.816-1.818-1.818-1.818H9.732v-3.636h78.536V42.02z M91.904,34.749H6.096v-3.636h85.808
		V34.749z M9.732,27.477V13.66h78.536v13.817H9.732z M6.096,10.024V6.388h85.808v3.636H6.096z M6.096,10.024"/>
	<path d="M73.178,45.656c1.002,0,1.818-0.816,1.818-1.818c0-1.002-0.816-1.818-1.818-1.818s-1.818,0.816-1.818,1.818
		C71.36,44.84,72.176,45.656,73.178,45.656L73.178,45.656z M73.178,45.656"/>
	<path d="M56.272,45.656h9.635c1.002,0,1.818-0.816,1.818-1.818c0-1.002-0.816-1.818-1.818-1.818h-9.635
		c-1.002,0-1.818,0.816-1.818,1.818C54.454,44.84,55.27,45.656,56.272,45.656L56.272,45.656z M56.272,45.656"/>
	<path d="M49,45.656c1.002,0,1.818-0.816,1.818-1.818c0-1.002-0.816-1.818-1.818-1.818s-1.818,0.816-1.818,1.818
		C47.182,44.84,47.998,45.656,49,45.656L49,45.656z M49,45.656"/>
	<path d="M24.821,45.656c1.002,0,1.818-0.816,1.818-1.818c0-1.002-0.816-1.818-1.818-1.818c-1.001,0-1.818,0.816-1.818,1.818
		C23.003,44.84,23.819,45.656,24.821,45.656L24.821,45.656z M24.821,45.656"/>
	<path d="M32.092,45.656h9.636c1.002,0,1.818-0.816,1.818-1.818c0-1.002-0.816-1.818-1.818-1.818h-9.636
		c-1.001,0-1.818,0.816-1.818,1.818C30.274,44.84,31.091,45.656,32.092,45.656L32.092,45.656z M32.092,45.656"/>
	<path d="M47.909,81.288h34.905c1.004,0,1.818-0.814,1.818-1.818V51.11c0-1.004-0.814-1.818-1.818-1.818H47.909
		c-1.004,0-1.818,0.814-1.818,1.818v28.36C46.091,80.474,46.905,81.288,47.909,81.288L47.909,81.288z M49.727,52.928h31.269v24.724
		H49.727V52.928z M49.727,52.928"/>
	<path d="M22.884,20.177c0.86-0.374,1.29-1.168,1.29-2.383c0-1.8-1.012-2.701-3.035-2.701h-3.111c-0.447,0-1.032,0.194-1.032,0.728
		v9.652c0,0.51,0.618,0.714,1.032,0.714h3.369c1.983,0,3.051-1.378,3.051-3.263v-0.319C24.447,21.461,23.986,20.588,22.884,20.177
		L22.884,20.177z M19.347,17.158h1.593c0.56,0,0.866,0.561,0.866,1.062c0,0.509-0.312,1.048-0.866,1.048h-1.593L19.347,17.158
		L19.347,17.158z M22.08,22.728c0,0.931-0.405,1.396-1.214,1.396h-1.518v-3.035h1.518c0.81,0,1.214,0.465,1.214,1.396V22.728z
		 M22.08,22.728"/>
	<path d="M33.902,15.792c-0.194-0.608-0.989-0.789-1.548-0.789c-0.563,0-1.352,0.177-1.547,0.789l-2.824,9.257
		c-0.019,0.082-0.03,0.138-0.03,0.168c0,0.663,0.996,0.971,1.518,0.971c0.435,0,0.693-0.147,0.774-0.439l0.516-1.898h3.203
		l0.516,1.898c0.081,0.293,0.338,0.439,0.774,0.439c0.529,0,1.517-0.306,1.517-0.971c0-0.03-0.01-0.086-0.029-0.168L33.902,15.792z
		 M31.246,22.029l1.108-4.067l1.108,4.067H31.246z M31.246,22.029"/>
	<path d="M46.452,21.423c1.224-0.476,1.837-1.503,1.837-3.081c0-2.165-1.245-3.248-3.734-3.248h-3.141
		c-0.395,0-0.729,0.313-0.729,0.713v9.653c0,0.569,0.744,0.729,1.184,0.729c0.439,0,1.184-0.157,1.184-0.728v-3.658h1.001
		c0,0,2.073,4.025,2.079,4.037c0.358,0.694,1.289,0.442,1.768,0.045c0.265-0.219,0.661-0.745,0.403-1.108L46.452,21.423z
		 M45.595,19.63c-0.008,0.008-0.015,0.016-0.023,0.024c-0.257,0.26-0.669,0.326-1.016,0.326h-1.502v-2.823h1.502
		c0.351,0,0.751,0.073,1.019,0.328c0.287,0.276,0.347,0.704,0.347,1.083C45.922,18.925,45.85,19.35,45.595,19.63L45.595,19.63z
		 M45.595,19.63"/>
	<path d="M58.472,20.177c0.86-0.374,1.291-1.168,1.291-2.383c0-1.8-1.012-2.701-3.036-2.701h-3.111
		c-0.432,0-1.032,0.198-1.032,0.728v9.652c0,0.519,0.611,0.714,1.032,0.714h3.37c0.846,0,1.74-0.272,2.335-0.899
		c0.591-0.622,0.715-1.541,0.715-2.364v-0.319C60.035,21.469,59.562,20.584,58.472,20.177L58.472,20.177z M54.937,17.158h1.593
		c0.559,0,0.864,0.561,0.864,1.063c0,0.504-0.296,1.047-0.864,1.047h-1.593V17.158z M57.668,22.728c0,0.931-0.405,1.396-1.214,1.396
		h-1.517v-3.035h1.517c0.809,0,1.214,0.465,1.214,1.396V22.728z M57.668,22.728"/>
	<path d="M70.734,17.158c0.527,0,0.714-0.62,0.714-1.047c0-0.425-0.194-1.017-0.714-1.017h-5.402c-0.435,0-1.031,0.194-1.031,0.729
		v9.636c0,0.527,0.595,0.729,1.031,0.729h5.402c0.519,0,0.714-0.586,0.714-1.016c0-0.436-0.182-1.047-0.714-1.047h-4.066v-2.58
		h2.276c0.476,0,0.714-0.474,0.714-0.896c0-0.413-0.23-0.926-0.713-0.926h-2.277v-2.565H70.734z M70.734,17.158"/>
	<path d="M81.283,21.423c1.224-0.476,1.837-1.503,1.837-3.081c0-2.165-1.244-3.248-3.733-3.248h-3.142
		c-0.385,0-0.729,0.312-0.729,0.713v9.653c0,0.573,0.741,0.729,1.184,0.729c0.447,0,1.183-0.155,1.183-0.728v-3.658h1.001
		c0,0,2.071,4.02,2.08,4.037c0.357,0.694,1.289,0.441,1.768,0.045c0.268-0.221,0.666-0.737,0.401-1.108L81.283,21.423z
		 M80.402,19.655c-0.233,0.217-0.572,0.326-1.016,0.326h-1.503v-2.823h1.503c0.881,0,1.365,0.544,1.365,1.411
		C80.751,19.076,80.635,19.437,80.402,19.655L80.402,19.655z M80.402,19.655"/>
</g>
<g>
</g>
<g>
</g>
<g>
</g>
<g>
</g>
<g>
</g>
<g>
</g>
</svg>
